<?xml version="1.0" encoding="utf-8"?>
<svg viewBox="31.233 163.776 232.041 76.692" width="232.041" height="76.692" xmlns="http://www.w3.org/2000/svg">
  <g transform="matrix(0.332914, 0, 0, 0.332914, -170.512482, 22.952906)" style="">
    <g transform="matrix(0.984463,0,0,0.984463,9.41525,6.57203)">
      <g transform="matrix(1,0,0,1,366,-233)">
        <g transform="matrix(1,0,0,1,-93,196)">
          <path d="M555.799,628.884C536.606,667.46 496.641,694 450.5,694C385.65,694 333,641.574 333,577C333,512.426 385.65,460 450.5,460C515.35,460 568,512.426 568,577L567.909,580.586L554.49,552.245L514.563,552.245L514.563,562.427L524.745,562.427L555.799,628.884Z" style="fill:rgb(224,88,95);"/>
        </g>
        <g transform="matrix(1.01578,0,0,1.01578,304.25,679.065)">
          <g transform="matrix(270.833,0,0,270.833,0,174.417)">
            <path d="M0.065,-0.495L0.223,-0.538L0.223,-0.449L0.343,-0.449L0.343,-0.399L0.223,-0.399L0.223,-0.05L0.244,-0.05C0.283,-0.05 0.302,-0.079 0.302,-0.138L0.353,-0.138C0.353,-0.117 0.352,-0.097 0.35,-0.08C0.347,-0.063 0.341,-0.048 0.331,-0.035C0.32,-0.022 0.305,-0.013 0.285,-0.006C0.264,0.001 0.236,0.004 0.2,0.004C0.175,0.004 0.154,0.001 0.137,-0.005C0.12,-0.01 0.106,-0.018 0.095,-0.027C0.084,-0.036 0.077,-0.047 0.072,-0.058C0.067,-0.069 0.065,-0.081 0.065,-0.093L0.065,-0.495Z" style="fill:white;fill-rule:nonzero;"/>
          </g>
        </g>
      </g>
      <g transform="matrix(1,0,0,1,281.558,169.881)">
        <g transform="matrix(199.635,0,0,199.635,509,435)">
          <path d="M0.252,-0.307L0.301,-0.204L0.353,-0.31L0.296,-0.429L0.296,-0.449L0.443,-0.449L0.556,-0.2L0.62,-0.398L0.546,-0.398L0.546,-0.449L0.744,-0.449L0.744,-0.398L0.681,-0.398L0.537,0.03L0.516,0.03L0.387,-0.239L0.257,0.03L0.236,0.03L0.192,-0.065C0.228,-0.138 0.25,-0.22 0.252,-0.307Z"/>
        </g>
        <g transform="matrix(199.635,0,0,199.635,509,435)">
          <path d="M0.252,-0.307C0.25,-0.22 0.228,-0.138 0.192,-0.065L0.036,-0.398L-0.015,-0.398L-0.015,-0.449L0.185,-0.449L0.252,-0.307Z" style="fill:white;"/>
        </g>
        <g transform="matrix(199.635,0,0,199.635,655.532,435)">
          <path d="M0.03,-0.441L0.089,-0.441L0.247,-0.465L0.247,-0.051L0.306,-0.051L0.306,-0L0.03,-0L0.03,-0.051L0.089,-0.051L0.089,-0.391L0.03,-0.391L0.03,-0.441ZM0.089,-0.597C0.089,-0.625 0.095,-0.646 0.107,-0.66C0.119,-0.673 0.139,-0.68 0.168,-0.68C0.198,-0.68 0.219,-0.673 0.23,-0.66C0.241,-0.646 0.247,-0.625 0.247,-0.597C0.247,-0.568 0.241,-0.548 0.229,-0.535C0.216,-0.522 0.196,-0.515 0.168,-0.515C0.139,-0.515 0.119,-0.522 0.107,-0.535C0.095,-0.548 0.089,-0.568 0.089,-0.597Z" style="fill-rule:nonzero;"/>
        </g>
        <g transform="matrix(199.635,0,0,199.635,720.613,435)">
          <path d="M0.373,-0.489C0.346,-0.489 0.323,-0.494 0.306,-0.503C0.289,-0.512 0.275,-0.523 0.265,-0.536C0.255,-0.549 0.248,-0.561 0.244,-0.574C0.24,-0.587 0.238,-0.597 0.237,-0.604L0.203,-0.604C0.202,-0.599 0.201,-0.593 0.2,-0.586C0.198,-0.573 0.197,-0.553 0.197,-0.526C0.197,-0.503 0.203,-0.484 0.215,-0.47C0.227,-0.456 0.244,-0.449 0.265,-0.449L0.343,-0.449L0.343,-0.398L0.237,-0.398L0.237,-0.051L0.296,-0.051L0.296,-0L0.02,-0L0.02,-0.051L0.079,-0.051L0.079,-0.488C0.079,-0.511 0.082,-0.532 0.089,-0.552C0.096,-0.572 0.106,-0.589 0.12,-0.604C0.133,-0.619 0.151,-0.63 0.172,-0.639C0.193,-0.647 0.217,-0.651 0.245,-0.651C0.262,-0.651 0.281,-0.65 0.304,-0.649C0.326,-0.647 0.349,-0.645 0.373,-0.643L0.373,-0.489Z" style="fill-rule:nonzero;"/>
        </g>
        <g transform="matrix(199.635,0,0,199.635,794.278,435)">
          <path d="M0.373,-0.489C0.346,-0.489 0.323,-0.494 0.306,-0.503C0.289,-0.512 0.275,-0.523 0.265,-0.536C0.255,-0.549 0.248,-0.561 0.244,-0.574C0.24,-0.587 0.238,-0.597 0.237,-0.604L0.203,-0.604C0.202,-0.599 0.201,-0.593 0.2,-0.586C0.198,-0.573 0.197,-0.553 0.197,-0.526C0.197,-0.503 0.203,-0.484 0.215,-0.47C0.227,-0.456 0.244,-0.449 0.265,-0.449L0.343,-0.449L0.343,-0.398L0.237,-0.398L0.237,-0.051L0.296,-0.051L0.296,-0L0.02,-0L0.02,-0.051L0.079,-0.051L0.079,-0.488C0.079,-0.511 0.082,-0.532 0.089,-0.552C0.096,-0.572 0.106,-0.589 0.12,-0.604C0.133,-0.619 0.151,-0.63 0.172,-0.639C0.193,-0.647 0.217,-0.651 0.245,-0.651C0.262,-0.651 0.281,-0.65 0.304,-0.649C0.326,-0.647 0.349,-0.645 0.373,-0.643L0.373,-0.489Z" style="fill-rule:nonzero;"/>
        </g>
        <g transform="matrix(199.635,0,0,199.635,872.934,435)">
          <path d="M0.01,-0.615L0.069,-0.615L0.227,-0.644L0.227,-0.05C0.253,-0.05 0.27,-0.057 0.277,-0.07C0.284,-0.083 0.287,-0.106 0.287,-0.138L0.338,-0.138C0.338,-0.117 0.337,-0.098 0.335,-0.081C0.333,-0.064 0.327,-0.049 0.318,-0.036C0.308,-0.023 0.293,-0.014 0.273,-0.007C0.253,0 0.225,0.004 0.189,0.004C0.164,0.004 0.144,0 0.129,-0.007C0.113,-0.014 0.101,-0.023 0.092,-0.034C0.083,-0.044 0.077,-0.055 0.074,-0.066C0.071,-0.077 0.069,-0.086 0.069,-0.093L0.069,-0.565L0.01,-0.565L0.01,-0.615Z" style="fill-rule:nonzero;"/>
        </g>
        <g transform="matrix(199.635,0,0,199.635,942.407,435)">
          <path d="M0.262,-0.456C0.299,-0.456 0.329,-0.452 0.353,-0.446C0.377,-0.439 0.396,-0.427 0.411,-0.412C0.426,-0.397 0.436,-0.377 0.442,-0.352C0.448,-0.327 0.451,-0.296 0.451,-0.259C0.451,-0.248 0.451,-0.238 0.45,-0.23C0.449,-0.221 0.449,-0.214 0.448,-0.209C0.447,-0.202 0.447,-0.197 0.446,-0.194L0.199,-0.194C0.2,-0.171 0.201,-0.151 0.203,-0.133C0.205,-0.114 0.207,-0.098 0.209,-0.085C0.212,-0.069 0.214,-0.055 0.217,-0.043C0.219,-0.042 0.222,-0.041 0.226,-0.04C0.229,-0.039 0.234,-0.039 0.241,-0.039C0.247,-0.038 0.255,-0.038 0.265,-0.038C0.282,-0.038 0.298,-0.039 0.313,-0.042C0.328,-0.044 0.341,-0.048 0.352,-0.053C0.363,-0.058 0.372,-0.066 0.379,-0.076C0.385,-0.085 0.388,-0.097 0.388,-0.111L0.442,-0.111C0.442,-0.083 0.436,-0.061 0.424,-0.045C0.411,-0.029 0.396,-0.017 0.378,-0.009C0.359,-0 0.339,0.005 0.318,0.007C0.297,0.009 0.277,0.01 0.258,0.01C0.217,0.01 0.183,0.006 0.155,-0.003C0.126,-0.011 0.103,-0.024 0.086,-0.043C0.068,-0.061 0.055,-0.085 0.047,-0.115C0.039,-0.144 0.035,-0.18 0.035,-0.223C0.035,-0.266 0.039,-0.302 0.046,-0.332C0.053,-0.361 0.065,-0.385 0.082,-0.404C0.099,-0.422 0.123,-0.435 0.152,-0.444C0.181,-0.452 0.217,-0.456 0.262,-0.456ZM0.217,-0.405C0.214,-0.39 0.211,-0.374 0.208,-0.357C0.206,-0.342 0.204,-0.324 0.202,-0.304C0.2,-0.283 0.199,-0.261 0.199,-0.237L0.296,-0.237C0.295,-0.265 0.293,-0.29 0.291,-0.311C0.289,-0.332 0.287,-0.349 0.284,-0.363C0.281,-0.38 0.278,-0.394 0.275,-0.405C0.273,-0.406 0.271,-0.407 0.268,-0.408C0.265,-0.409 0.262,-0.409 0.259,-0.41C0.255,-0.411 0.251,-0.411 0.246,-0.411C0.241,-0.411 0.237,-0.411 0.234,-0.41C0.231,-0.409 0.228,-0.409 0.225,-0.408C0.222,-0.407 0.22,-0.406 0.217,-0.405Z" style="fill-rule:nonzero;"/>
        </g>
      </g>
    </g>
  </g>
</svg>